<svg width="144" height="131" viewBox="0 0 144 131" fill="none" xmlns="http://www.w3.org/2000/svg">
<path fill-rule="evenodd" clip-rule="evenodd" d="M144 94.4192V0H69.4915C68.5604 2.76575 65.7799 4.77283 62.4945 4.77283C59.2092 4.77283 56.4287 2.76575 55.4975 0H0V94.4192H56.6918C56.6186 94.7937 56.5803 95.1805 56.5803 95.5764V125C56.5803 128.314 59.2666 131 62.5803 131H79.8992C83.2129 131 85.8992 128.314 85.8992 125V95.5764C85.8992 95.1805 85.8608 94.7937 85.7876 94.4192H144ZM24.8002 27.1C24.8002 30.8589 21.5185 33.9061 17.4704 33.9061C13.4223 33.9061 10.1407 30.8589 10.1407 27.1C10.1407 23.3409 13.4223 20.2938 17.4704 20.2938C21.5185 20.2938 24.8002 23.3409 24.8002 27.1ZM63.91 69.1578C67.9581 69.1578 71.2397 66.1106 71.2397 62.3517C71.2397 58.5928 67.9581 55.5455 63.91 55.5455C59.8619 55.5455 56.5803 58.5928 56.5803 62.3517C56.5803 66.1106 59.8619 69.1578 63.91 69.1578ZM111.973 1.22485H109.895V12.6393L101.805 4.54968L100.336 6.01904L108.01 13.693H97.0107V15.7711H108.216L100.336 23.6519L101.805 25.1212L109.895 17.0316V28.2393H111.973V17.656L119.438 25.1212L120.907 23.6517L113.026 15.7711H124.025V13.693H113.233L120.907 6.01904L119.438 4.54968L111.973 12.0148V1.22485Z" fill="#B3281F"/>
</svg>
