<svg width="133" height="123" viewBox="0 0 133 123" fill="none" xmlns="http://www.w3.org/2000/svg">
<path fill-rule="evenodd" clip-rule="evenodd" d="M132.261 123L71.8761 41.0099C69.0785 37.2113 63.401 37.2113 60.6034 41.0099L0.218376 123H31.2516C30.8118 122.126 30.5661 121.151 30.5661 120.122C30.5661 116.363 33.8477 113.316 37.8958 113.316C41.9439 113.316 45.2255 116.363 45.2255 120.122C45.2255 121.151 44.9798 122.126 44.54 123H97.6798C98.968 121.046 101.288 119.743 103.935 119.743C106.583 119.743 108.903 121.046 110.191 123H132.261ZM63.4081 2.18306C64.3454 -0.495834 68.134 -0.495834 69.0714 2.18306L72.942 13.2448C73.3631 14.4481 74.4987 15.2539 75.7736 15.2539H87.7982C90.7579 15.2539 91.9296 19.0856 89.476 20.7409L80.1397 27.0396C79.0096 27.802 78.5356 29.2306 78.9859 30.5173L82.6406 40.9618C83.5942 43.6871 80.5247 46.0545 78.1311 44.4396L67.9175 37.5491C66.9036 36.865 65.5759 36.865 64.5619 37.5491L54.3483 44.4396C51.9548 46.0545 48.8852 43.6871 49.8388 40.9618L53.4935 30.5173C53.9438 29.2306 53.4698 27.802 52.3397 27.0396L43.0034 20.7409C40.5499 19.0856 41.7215 15.2539 44.6812 15.2539H56.7058C57.9807 15.2539 59.1164 14.4481 59.5374 13.2448L63.4081 2.18306ZM70.994 72H73.0721V82.7901L80.5372 75.325L82.0066 76.7943L74.3328 84.4682H85.1247V86.5462H74.1258L82.0066 94.427L80.5372 95.8964L73.0721 88.4313V99.0144H70.994V87.8069L62.9045 95.8965L61.4351 94.427L69.3159 86.5462H58.1102V84.4682H69.1089L61.4351 76.7943L62.9045 75.325L70.994 83.4144V72Z" fill="#B3281F"/>
</svg>
