<svg width="144" height="144" viewBox="0 0 144 144" fill="none" xmlns="http://www.w3.org/2000/svg">
<path fill-rule="evenodd" clip-rule="evenodd" d="M138.734 0H116.074C116.199 0.497559 116.265 1.01611 116.265 1.54895C116.265 5.30786 112.984 8.3551 108.935 8.3551C104.887 8.3551 101.606 5.30786 101.606 1.54895C101.606 1.01611 101.672 0.497559 101.796 0H48.0076C46.6872 1.19336 44.8839 1.92834 42.8958 1.92834C40.9077 1.92834 39.1044 1.19336 37.784 0H3.74539L0 5.08545V30.8679H18.947L0 56.6057V144H55.1649C55.1648 143.989 55.1648 143.978 55.1648 143.967C55.1648 140.208 58.4464 137.16 62.4945 137.16C66.5426 137.16 69.8242 140.208 69.8242 143.967C69.8242 143.978 69.8242 143.989 69.8242 144H144V59.3823L123.009 30.8679H144V7.1499L138.734 0ZM125.165 107.306C129.214 107.306 132.495 104.259 132.495 100.5C132.495 96.7412 129.214 93.694 125.165 93.694C121.117 93.694 117.836 96.7412 117.836 100.5C117.836 104.259 121.117 107.306 125.165 107.306ZM71.2397 94.2177C75.2878 94.2177 78.5694 91.1704 78.5694 87.4115C78.5694 83.6526 75.2878 80.6053 71.2397 80.6053C67.1916 80.6053 63.91 83.6526 63.91 87.4115C63.91 91.1704 67.1916 94.2177 71.2397 94.2177ZM108.935 46.5745C108.935 50.3334 105.654 53.3806 101.606 53.3806C97.5576 53.3806 94.276 50.3334 94.276 46.5745C94.276 42.8156 97.5576 39.7683 101.606 39.7683C105.654 39.7683 108.935 42.8156 108.935 46.5745ZM13.1256 107.83C17.1737 107.83 20.4553 104.783 20.4553 101.024C20.4553 97.2648 17.1737 94.2175 13.1256 94.2175C9.07747 94.2175 5.79585 97.2648 5.79585 101.024C5.79585 104.783 9.07747 107.83 13.1256 107.83ZM40.9935 40.7561H38.9155V52.1704L30.8259 44.0809L29.3565 45.5503L37.0303 53.2241H26.0316V55.3022H37.2372L29.3565 63.183L30.8259 64.6523L38.9155 56.5627V67.7705H40.9935V57.1873L48.4586 64.6523L49.928 63.183L42.0472 55.3022H53.0461V53.2241H42.254L49.9279 45.5502L48.4586 44.0808L40.9935 51.5459V40.7561Z" fill="#B3281F"/>
</svg>
